<?xml version="1.0" encoding="iso-8859-1"?>
<!-- Generator: Adobe Illustrator 19.0.0, SVG Export Plug-In . SVG Version: 6.00 Build 0)  -->
<svg version="1.1" id="Layer_1" xmlns="http://www.w3.org/2000/svg" xmlns:xlink="http://www.w3.org/1999/xlink" x="0px" y="0px"
	 viewBox="0 0 512 512" style="enable-background:new 0 0 512 512;" xml:space="preserve">
<circle style="fill:#FFF59B;" cx="256" cy="256" r="256"/>
<path style="fill:#5F6E8C;" d="M114.759,469.492c5.729,3.798,11.615,7.377,17.655,10.713V132.414h-17.655V469.492z"/>
<g>
	<circle style="fill:#00C85F;" cx="123.586" cy="123.586" r="17.655"/>
	<path style="fill:#00C85F;" d="M264.828,123.586h132.414c4.875,0,8.828,3.951,8.828,8.828v176.552c0,4.875-3.953,8.828-8.828,8.828
		H264.828V123.586z"/>
</g>
<polyline style="fill:#FFF046;" points="264.828,132.154 397.241,220.69 264.828,309.225 "/>
<path style="fill:#4B82E1;" d="M264.828,273.655c29.252,0,52.966-23.713,52.966-52.966s-23.713-52.966-52.966-52.966"/>
<path style="fill:#00C85F;" d="M291.31,150.069H158.897c-4.876,0-8.828,3.951-8.828,8.828v176.552c0,4.875,3.951,8.828,8.828,8.828
	H291.31V150.069z"/>
<polygon style="fill:#FFF046;" points="291.31,335.708 158.897,247.172 291.31,158.637 "/>
<path style="fill:#4B82E1;" d="M291.31,300.138c-29.252,0-52.965-23.713-52.965-52.966s23.713-52.966,52.965-52.966"/>
<g>
	<rect x="132.414" y="167.724" style="fill:#6E82A0;" width="17.655" height="17.655"/>
	<rect x="132.414" y="308.966" style="fill:#6E82A0;" width="17.655" height="17.655"/>
</g>
<polygon style="fill:#009B64;" points="291.31,150.069 264.828,123.586 264.828,150.069 "/>
<g>
</g>
<g>
</g>
<g>
</g>
<g>
</g>
<g>
</g>
<g>
</g>
<g>
</g>
<g>
</g>
<g>
</g>
<g>
</g>
<g>
</g>
<g>
</g>
<g>
</g>
<g>
</g>
<g>
</g>
</svg>
